<svg xmlns="http://www.w3.org/2000/svg" xml:space="preserve" width="1500" height="1500" data-id="lg_YxnFoiEF3li3yqHnVF" data-version="1"><path fill="#fff" stroke="transparent" d="M0 0h1500v1500H0z"/><g data-padding="20"><path fill="#3b3b3b" d="M448.667 781.718q4.508-6.77 7.49-12.59 2.98-5.837 5.764-13.524 9.412 5.424 21.876 8.477t23.205 3.053q11.01 0 15.518-1.921t4.509-4.185q0-8.082-24.66-8.082-27.049 0-39.244-5.64-12.213-5.622-12.213-18.23 0-17.889 14.853-26.384 14.853-8.478 38.58-8.478 13.793 0 28.305 3.503 14.53 3.52 26.187 9.627-3.844 8.746-8.083 21.337-.79 2.658-1.329 3.987-6.753-5.442-20.42-9.088-13.65-3.646-24.122-3.646-12.59 0-16.973 1.652t-4.382 4.85q0 3.179 6.035 5.1t17.44 1.922q28.108 0 40.842 6.43 12.716 6.43 12.716 19.685 0 18.571-13.524 26.725t-40.968 8.154q-14.71 0-29.959-3.25t-27.443-9.484m171.433-61.12h38.849l-32.886 29.959q16.83 23.87 31.413 42.566h-35.13l-6.754-10.884q-6.627-10.992-8.765-14.314L595.835 778v15.122h-30.497q1.06-25.198 1.06-51.044 0-25.989-1.06-52.103h30.497v56.216q12.86-13.129 24.265-25.593m56.073-7.688q-8.352 0-12.393-4.113t-4.04-10.74q0-6.502 4.04-10.74t12.393-4.24q7.957 0 12.195 4.311 4.257 4.311 4.257 10.669 0 6.627-4.113 10.74t-12.339 4.113m16.183 80.212h-31.557q.934-21.355.934-35.274 0-16.578-1.06-37.125h31.808q-1.06 19.757-1.06 37.125 0 14.584.935 35.274m37.52-53.037q-.145 7.956-.145 24.39 0 19.757.27 28.647h-31.287l.143-14.979q.252-24.66.252-38.058 0-12.734-.252-36.065l-.143-14.315H730q-.27 18.823-.27 30.749 0 13.273.144 19.63m36.065 0q-.144 7.957-.144 24.391 0 19.757.27 28.647h-31.288l.126-14.979q.27-24.66.27-38.058 0-12.734-.27-36.065l-.126-14.315h31.288q-.27 18.823-.27 30.749 0 13.273.144 19.63m128.993-43.23v24.803H822.82v13.92q6.753.125 20.278.125 23.33 0 47.47-.79v25.99q-24.14-.935-50.919-.935-11.135 0-16.829.144v33.011h-31.305q1.077-25.72 1.077-48.134 0-22.397-1.077-48.134Zm47.47 97.597q-22.667 0-33.335-10.417-10.687-10.399-10.687-27.372 0-16.577 10.687-26.923 10.668-10.345 33.335-10.345 15.248 0 25.522 4.975T983.1 737.77t4.903 18.894q0 17.099-11.333 27.444t-34.268 10.345m.538-22.54q8.604 0 12.86-4.113 4.239-4.113 4.239-11.01 0-6.502-4.239-10.668-4.256-4.185-12.86-4.185-8.62 0-12.608 4.113-3.97 4.113-3.97 10.74 0 6.897 3.97 11.01 3.987 4.113 12.608 4.113m75.291-51.188 3.987 19.631q5.568-20.026 27.714-20.026 3.843 0 7.417.539l-4.238 29.689q-9.555-3.574-15.644-3.574-7.561 0-11.136 4.508-3.592 4.508-3.592 12.07v-.144l-.125 8.746q0 9.412.538 20.96h-31.7q1.06-19.092 1.06-36.064t-1.06-36.335q8.765.395 13.399.395 4.903 0 13.38-.395m92.551 14.459 3.323-14.459h25.45q-.665 21.75-.665 61.785 0 15.787-6.304 25.863-6.286 10.076-16.631 14.638-10.346 4.58-23.08 4.58-12.59 0-22.522-3.646-9.95-3.646-15.123-9.753l5.963-20.277q7.166 4.113 13.524 5.89 6.376 1.797 13.255 1.797 22.54 0 22.54-19.092 0-2.784.144-3.97 0-.808.054-2.119.072-1.33-.054-3.448-6.77 18.822-28.647 18.822-8.872 0-15.841-4.777t-10.812-12.932-3.844-17.96q0-10.076 3.844-18.5 3.843-8.405 10.74-13.327 6.897-4.903 15.518-4.903 22.415 0 29.168 15.788m-14.98 35.4q3.054 0 6.359-1.401 3.323-1.383 5.711-4.508 2.39-3.107 2.39-7.76 0-8.207-3.719-11.727-3.718-3.503-11.01-3.503-6.358 0-10.075 4.239t-3.718 10.992q0 6.106 4.059 9.878 4.04 3.79 10.004 3.79m135.1-10.615h-59.666q1.06 5.837 5.245 9.483 4.167 3.646 11.854 3.646 5.585 0 10.489-2.19t7.813-6.161q8.89 4.382 23.6 9.411-4.113 9.286-14.908 14.782-10.812 5.513-28.18 5.513-22.54 0-33.352-10.417-10.795-10.399-10.795-27.372 0-16.577 10.74-26.923t33.407-10.345q13.525 0 23.475 4.508 9.932 4.508 15.248 12.537 5.299 8.028 5.299 18.355 0 3.449-.27 5.173M1189 739.422q-6.627 0-10.866 2.515-4.239 2.532-5.963 6.897h31.287q-1.598-4.24-5.172-6.825T1189 739.42" font-family="Dela Gothic One" font-size="73.819"/><path fill="#ff851b" d="M336.43 741.38a33.496 33.496 0 0 1 33.497 33.495l.422 67.532h33.614v-67.532c0-37.296-30.236-67.531-67.532-67.531s-67.532 30.235-67.532 67.531v67.532h34.07l-.034-67.532c0-18.498 14.997-33.495 33.496-33.495" vector-effect="non-scaling-stroke"/><path fill="#3d9970" d="M336.36 758.62a33.496 33.496 0 0 1-33.497-33.495l-.422-67.532h-33.614v67.532c0 37.296 30.236 67.531 67.532 67.531s67.532-30.235 67.532-67.531v-67.532h-34.07l.034 67.532c0 18.498-14.997 33.495-33.496 33.495" vector-effect="non-scaling-stroke"/><path fill="transparent" stroke="transparent" stroke-width="1.866" d="M250 653.918h1000v192.164H250z"/></g></svg>