<svg xmlns="http://www.w3.org/2000/svg" xml:space="preserve" width="1500" height="103" data-id="lg_YxnFoiEF3li3yqHnVF" data-version="1"><g data-padding="20"><path fill="#3b3b3b" d="M588.485 68.501q2.417-3.63 4.015-6.748 1.598-3.13 3.09-7.25 5.044 2.908 11.725 4.544t12.438 1.637q5.902 0 8.318-1.03t2.416-2.243q0-4.332-13.217-4.332-14.498 0-21.035-3.023-6.546-3.013-6.546-9.771 0-9.589 7.961-14.142 7.961-4.544 20.679-4.544 7.393 0 15.171 1.877 7.789 1.887 14.036 5.16-2.06 4.688-4.332 11.437-.423 1.425-.712 2.137-3.62-2.917-10.946-4.871-7.316-1.954-12.929-1.954-6.748 0-9.097.885t-2.349 2.6q0 1.704 3.235 2.734t9.347 1.03q15.066 0 21.892 3.446 6.816 3.446 6.816 10.551 0 9.954-7.25 14.325t-21.958 4.37q-7.885 0-16.058-1.742t-14.71-5.083m91.889-32.76h20.823L683.57 51.798q9.02 12.795 16.837 22.816h-18.83l-3.62-5.834q-3.552-5.891-4.698-7.672l-5.891 5.4v8.106H651.02q.568-13.506.568-27.36 0-13.93-.568-27.927h16.347v30.132q6.893-7.037 13.006-13.718m30.055-4.12q-4.477 0-6.643-2.205t-2.166-5.757q0-3.485 2.166-5.757t6.643-2.272q4.264 0 6.536 2.31 2.282 2.311 2.282 5.72 0 3.551-2.205 5.756t-6.613 2.205m8.674 42.993h-16.915q.5-11.446.5-18.907 0-8.886-.567-19.899h17.049q-.568 10.59-.568 19.899 0 7.817.5 18.907m20.111-28.428q-.077 4.265-.077 13.073 0 10.59.144 15.355h-16.77l.077-8.029q.135-13.217.135-20.399 0-6.825-.135-19.33l-.077-7.673h16.77q-.144 10.089-.144 16.48 0 7.115.077 10.523m19.33 0q-.076 4.265-.076 13.073 0 10.59.144 15.355h-16.77l.068-8.029q.144-13.217.144-20.399 0-6.825-.144-19.33l-.068-7.673h16.77q-.144 10.089-.144 16.48 0 7.115.077 10.523m69.14-23.172V36.31h-38.652v7.46q3.62.068 10.869.068 12.505 0 25.444-.424v13.93q-12.939-.5-27.293-.5-5.968 0-9.02.077v17.694h-16.78q.578-13.786.578-25.8 0-12.005-.578-25.8Zm25.444 52.312q-12.15 0-17.868-5.583-5.728-5.574-5.728-14.671 0-8.886 5.728-14.431 5.719-5.545 17.868-5.545 8.173 0 13.68 2.666t8.134 7.182 2.628 10.128q0 9.164-6.074 14.71t-18.368 5.544m.289-12.081q4.61 0 6.892-2.205 2.272-2.204 2.272-5.901 0-3.485-2.272-5.718-2.281-2.243-6.892-2.243-4.621 0-6.758 2.204-2.128 2.205-2.128 5.757 0 3.697 2.128 5.901 2.137 2.205 6.758 2.205m40.355-27.437 2.138 10.522q2.984-10.734 14.854-10.734 2.06 0 3.976.29l-2.272 15.912q-5.122-1.915-8.385-1.915-4.053 0-5.969 2.416-1.925 2.416-1.925 6.47v-.078l-.068 4.689q0 5.044.29 11.234h-16.992q.568-10.233.568-19.33t-.568-19.476q4.698.212 7.181.212 2.629 0 7.172-.212m49.608 7.75 1.78-7.75h13.642q-.356 11.658-.356 33.117 0 8.462-3.38 13.862-3.369 5.401-8.914 7.846-5.545 2.455-12.37 2.455-6.749 0-12.072-1.954-5.334-1.954-8.106-5.228l3.196-10.868q3.841 2.204 7.249 3.157 3.417.963 7.105.963 12.081 0 12.081-10.233 0-1.493.077-2.128 0-.433.03-1.136.038-.712-.03-1.848-3.63 10.089-15.355 10.089-4.755 0-8.49-2.561t-5.796-6.931-2.06-9.627q0-5.4 2.06-9.916 2.06-4.505 5.757-7.143 3.697-2.628 8.318-2.628 12.014 0 15.634 8.462m-8.03 18.974q1.637 0 3.409-.75 1.78-.742 3.061-2.417 1.28-1.665 1.28-4.159 0-4.4-1.992-6.286-1.993-1.877-5.902-1.877-3.407 0-5.4 2.272t-1.993 5.891q0 3.273 2.176 5.295 2.166 2.031 5.362 2.031m72.413-5.69h-31.98q.568 3.13 2.81 5.084 2.234 1.954 6.354 1.954 2.994 0 5.623-1.174t4.187-3.302q4.766 2.349 12.65 5.044-2.205 4.977-7.99 7.923-5.796 2.955-15.105 2.955-12.082 0-17.877-5.583-5.786-5.574-5.786-14.671 0-8.886 5.757-14.431t17.906-5.545q7.25 0 12.582 2.416 5.324 2.417 8.174 6.72 2.84 4.303 2.84 9.838 0 1.849-.145 2.773m-22.46-11.013q-3.552 0-5.824 1.348-2.272 1.357-3.196 3.696h16.77q-.857-2.272-2.772-3.658t-4.977-1.386" font-family="Dela Gothic One" font-size="73.819"/><path fill="#ff851b" d="M528.327 46.88a17.954 17.954 0 0 1 17.954 17.953l.226 36.197h18.017V64.833c0-19.99-16.206-36.197-36.197-36.197S492.13 44.843 492.13 64.833v36.197h18.261l-.018-36.197c0-9.915 8.039-17.954 17.954-17.954" vector-effect="non-scaling-stroke"/><path fill="#3d9970" d="M528.288 56.12a17.954 17.954 0 0 1-17.953-17.953l-.226-36.197H492.09v36.197c0 19.99 16.207 36.197 36.197 36.197s36.197-16.207 36.197-36.197V1.97h-18.26l.017 36.197c0 9.915-8.038 17.954-17.954 17.954" vector-effect="non-scaling-stroke"/><path fill="transparent" stroke="transparent" d="M482 0h536v103H482z"/></g></svg>